<svg width="1064" height="100" viewBox="0 0 1064 100" fill="none" xmlns="http://www.w3.org/2000/svg">
<g clip-path="url(#clip0_2_21)">
<path d="M47.1834 0.0269104C46.9684 0.0464578 46.2841 0.114874 45.6683 0.163743C31.465 1.4441 18.161 9.10671 9.73477 20.8841C5.04269 27.4325 2.04171 34.8605 0.907788 42.7284C0.507006 45.4748 0.45813 46.286 0.45813 50.0098C0.45813 53.7336 0.507006 54.5448 0.907788 57.2912C3.62529 76.0666 16.9879 91.8414 35.1111 97.6861C38.3565 98.7319 41.7778 99.4453 45.6683 99.8754C47.1834 100.042 53.7328 100.042 55.248 99.8754C61.9635 99.1326 67.6527 97.471 73.2636 94.6073C74.1238 94.1675 74.29 94.0502 74.1727 93.9525C74.0945 93.8939 70.4288 88.9777 66.03 83.0352L58.0339 72.2353L48.0143 57.4085C42.5011 49.2572 37.9655 42.5915 37.9264 42.5915C37.8873 42.5817 37.8482 49.1692 37.8286 57.213C37.7993 71.297 37.7895 71.8639 37.6136 72.1962C37.3594 72.6751 37.1639 72.8706 36.7533 73.0856C36.4405 73.242 36.1668 73.2713 34.6908 73.2713H32.9997L32.55 72.9878C32.2568 72.8021 32.0417 72.5578 31.8951 72.2744L31.6898 71.8345L31.7094 52.2382L31.7387 32.6321L32.0417 32.2509C32.1981 32.0457 32.5305 31.7818 32.7651 31.6547C33.1659 31.4592 33.3223 31.4397 35.0134 31.4397C37.0075 31.4397 37.3399 31.5179 37.8579 32.0848C38.0046 32.2411 43.4298 40.412 49.9205 50.2541C56.4112 60.0963 65.2871 73.5352 69.6468 80.1324L77.5647 92.1248L77.9655 91.8609C81.5138 89.5543 85.2675 86.2703 88.2392 82.8495C94.5637 75.5877 98.6399 66.7327 100.008 57.2912C100.409 54.5448 100.458 53.7336 100.458 50.0098C100.458 46.286 100.409 45.4748 100.008 42.7284C97.291 23.953 83.9283 8.17821 65.8051 2.33351C62.6087 1.2975 59.2069 0.584013 55.3946 0.153969C54.4562 0.0562316 47.9948 -0.0512795 47.1834 0.0269104ZM67.6527 30.2668C68.1219 30.5014 68.5031 30.951 68.6399 31.4201C68.7181 31.6743 68.7377 37.1085 68.7181 49.3549L68.6888 66.9281L65.5901 62.1781L62.4816 57.4281V44.6538C62.4816 36.395 62.5207 31.7525 62.5793 31.5277C62.7357 30.9803 63.0779 30.5503 63.5471 30.2962C63.9479 30.0909 64.0945 30.0714 65.6292 30.0714C67.0759 30.0714 67.3301 30.0909 67.6527 30.2668Z" fill="white"/>
</g>
<g clip-path="url(#clip1_2_21)">
<path d="M353.458 50V100H453.458V0H353.458V50ZM434.039 46.0125C436.58 46.6469 438.514 47.7875 440.305 49.625C441.218 50.6 442.583 52.3906 442.699 52.8312C442.73 52.9625 438.386 55.875 435.749 57.5031C435.652 57.5687 435.261 57.1625 434.836 56.525C433.552 54.6531 432.199 53.8406 430.133 53.6937C427.105 53.4969 425.152 55.0781 425.168 57.7313C425.152 58.3813 425.299 59.0344 425.589 59.6031C426.258 60.9875 427.511 61.8156 431.383 63.4938C438.546 66.5688 441.605 68.6031 443.508 71.4844C445.639 74.7063 446.111 79.85 444.68 83.6906C443.086 87.8406 439.146 90.6719 433.611 91.6C431.902 91.9094 427.833 91.8594 425.993 91.5187C421.974 90.8031 418.164 88.8156 415.821 86.2125C414.893 85.2031 413.102 82.55 413.218 82.3719C413.268 82.3062 413.674 82.0469 414.13 81.7844C414.586 81.5219 416.261 80.5469 417.843 79.6344L420.724 77.9594L421.327 78.8531C422.174 80.1375 424.011 81.8969 425.121 82.4812C428.311 84.175 432.689 83.9313 434.855 81.9938C435.733 81.2625 436.224 80.1375 436.158 79C436.158 77.8438 436.011 77.325 435.408 76.4594C434.627 75.3531 433.049 74.4094 428.539 72.4563C423.38 70.225 421.149 68.8594 419.133 66.6625C417.864 65.2125 416.921 63.5062 416.383 61.6656C416.008 60.25 415.911 56.7 416.205 55.2844C417.264 50.2875 421.039 46.8219 426.458 45.7969C428.218 45.4562 432.318 45.5844 434.043 46.0094L434.039 46.0125ZM410.571 50.1969L410.602 54.2813H397.58V91.2781H388.368V54.2813H375.364V50.2781C375.364 48.0469 375.414 46.1937 375.477 46.1437C375.527 46.0781 383.436 46.0469 393.039 46.0625L410.521 46.1125L410.571 50.1969Z" fill="white"/>
</g>
<g clip-path="url(#clip2_2_21)">
<path fill-rule="evenodd" clip-rule="evenodd" d="M546.098 92.1606C537.373 92.1606 531.733 88.001 528.983 82.561L536.633 78.1299C538.648 81.4199 541.263 83.8354 545.898 83.8354C549.788 83.8354 552.273 81.8891 552.273 79.2041C552.273 75.1641 546.883 73.5856 543.078 71.9556C536.298 69.0706 531.798 65.4455 531.798 57.7905C531.798 50.7455 537.168 45.376 545.563 45.376C551.533 45.376 555.833 47.4556 558.918 52.8906L551.603 57.5903C549.993 54.7053 548.248 53.5645 545.563 53.5645C542.808 53.5645 541.063 55.3103 541.063 57.5903C541.063 60.4103 542.808 61.5509 546.838 63.2959C555.283 66.9159 561.673 69.7598 561.673 79.0698C561.673 87.5298 555.028 92.1606 546.098 92.1606ZM524.458 77.9956C524.458 87.7306 518.463 92.876 510.138 92.876C502.618 92.876 498.113 90 495.898 85H495.823H495.788H495.768L503.413 79.6558C504.888 82.2708 506.218 84.126 509.438 84.126C512.528 84.126 514.458 82.5612 514.458 77.8662V45H524.458V77.9956ZM469.458 100H569.458V0H469.458V100Z" fill="white"/>
</g>
<path d="M156.186 69.4093C157.905 69.4875 159.661 69.5437 161.439 69.5437C163.236 69.5437 165.011 69.5062 166.752 69.4093C165.011 71.6593 163.293 73.6499 161.474 75.5468L161.499 75.5218C159.689 73.6468 157.952 71.6531 156.314 69.5781L156.186 69.4093ZM138.38 66.9093C141.764 67.7687 145.893 68.4999 150.105 68.9499L150.514 68.9843C153.093 72.5249 155.699 75.6406 158.496 78.5718L158.461 78.5343C154.364 83.1062 148.836 86.3187 142.583 87.4718L142.411 87.4968C142.399 87.4968 142.386 87.4968 142.374 87.4968C141.599 87.4968 140.868 87.3062 140.227 86.9687L140.252 86.9812C137.652 85.4968 136.524 79.8187 137.402 72.5218C137.611 70.7249 137.955 68.8343 138.377 66.9062L138.38 66.9093ZM184.577 66.8687C184.946 68.35 185.293 70.2374 185.539 72.1562L185.568 72.425C186.464 79.7187 185.358 85.3906 182.78 86.9062C182.205 87.225 181.518 87.4124 180.786 87.4124C180.714 87.4124 180.643 87.4093 180.571 87.4062H180.58C174.164 86.2343 168.639 83.0437 164.552 78.5281L164.53 78.5031C167.277 75.6187 169.864 72.5093 172.236 69.2375L172.418 68.975C177.03 68.4937 181.164 67.7499 185.193 66.7343L184.577 66.8656V66.8687ZM142.033 55.2062C142.814 56.7375 143.633 58.2625 144.533 59.7937C145.431 61.3166 146.349 62.8041 147.286 64.2562C144.574 63.8593 141.955 63.3593 139.452 62.75C140.155 60.2906 141.036 57.7437 142.03 55.2L142.033 55.2062ZM180.871 55.1281C181.905 57.6937 182.783 60.2531 183.511 62.7343C181.011 63.3468 178.371 63.8656 175.639 64.2562C176.577 62.7906 177.514 61.2812 178.393 59.7343C179.271 58.2125 180.093 56.6562 180.877 55.125L180.871 55.1281ZM135.268 38.4125C136.63 43.0312 138.093 46.8937 139.796 50.6187L139.561 50.05C138.105 53.1906 136.664 57.0312 135.483 60.9843L135.321 61.625C133.114 60.9468 131.339 60.2812 129.611 59.5343L129.971 59.6718C123.208 56.7937 118.833 53.0093 118.833 50.0093C118.833 47.0093 123.208 43.2062 129.971 40.3406C131.611 39.6375 133.411 39.0031 135.268 38.4125ZM187.577 38.3968C189.468 38.9812 191.264 39.6343 192.946 40.3406C199.708 43.2312 204.083 47.0093 204.083 50.0093C204.064 53.0093 199.689 56.8031 192.927 59.6749C191.286 60.3781 189.489 61.0093 187.636 61.6C186.261 56.9656 184.799 53.1062 183.102 49.375L183.339 49.9625C184.789 46.825 186.233 42.9843 187.411 39.0312L187.577 38.3875V38.3968ZM175.614 35.7625C178.33 36.1656 180.946 36.6593 183.449 37.275C182.746 39.7437 181.868 42.2812 180.871 44.825C180.089 43.3031 179.271 41.7687 178.371 40.2406C177.493 38.7093 176.555 37.2187 175.618 35.7656L175.614 35.7625ZM147.264 35.7625C146.327 37.2343 145.389 38.7406 144.514 40.2937C143.636 41.8156 142.814 43.3468 142.033 44.8781C140.999 42.3156 140.121 39.7625 139.393 37.275C141.893 36.6906 144.527 36.1687 147.261 35.7687L147.264 35.7625ZM161.458 34.7687C164.349 34.7687 167.227 34.9 170.058 35.1312C171.644 37.4041 173.183 39.825 174.677 42.3937C176.129 44.8937 177.454 47.427 178.652 49.9937C177.449 52.5531 176.13 55.1093 174.696 57.6093C173.211 60.1875 171.677 62.6406 170.086 64.9124C167.243 65.1593 164.361 65.2937 161.455 65.2937C158.564 65.2937 155.686 65.1562 152.855 64.9312C151.271 62.6593 149.724 60.2281 148.236 57.6687C146.784 55.1687 145.459 52.6354 144.261 50.0687C145.446 47.5031 146.783 44.9406 148.218 42.4375C149.702 39.8593 151.236 37.4156 152.827 35.1437C155.671 34.8937 158.552 34.7624 161.458 34.7624V34.7687ZM161.399 24.5156C163.211 26.3906 164.949 28.3812 166.583 30.4562L166.708 30.6218C164.989 30.5437 163.233 30.4906 161.455 30.4906C159.658 30.4906 157.883 30.5281 156.143 30.6218C157.88 28.3718 159.599 26.3812 161.421 24.4843L161.396 24.5093L161.399 24.5156ZM142.333 12.6031C148.749 13.7781 154.271 16.9687 158.361 21.4812L158.383 21.5062C155.636 24.3937 153.049 27.5031 150.677 30.7812L150.496 31.0437C145.886 31.5218 141.752 32.2593 137.727 33.275L138.339 33.1437C137.902 31.2312 137.577 29.3781 137.349 27.6C136.452 20.3062 137.558 14.6343 140.136 13.125C140.78 12.8218 141.533 12.6343 142.327 12.6093H142.336L142.333 12.6031ZM180.489 12.525V12.55C180.53 12.55 180.577 12.5468 180.627 12.5468C181.374 12.5468 182.077 12.7312 182.696 13.0562L182.671 13.0437C185.271 14.5343 186.399 20.2093 185.521 27.5093C185.311 29.3062 184.968 31.2 184.546 33.1312C181.155 32.2625 177.027 31.5281 172.814 31.0812L172.414 31.0468C169.833 27.5031 167.227 24.3875 164.43 21.4531L164.468 21.4906C168.564 16.9281 174.083 13.7156 180.324 12.5562L180.499 12.5281L180.489 12.525ZM180.508 8.2687C172.877 9.42808 166.271 13.1343 161.446 18.4812L161.421 18.5093C156.561 13.1656 149.955 9.48433 142.511 8.3687L142.336 8.34683C142.296 8.34683 142.246 8.34683 142.196 8.34683C140.661 8.34683 139.221 8.74995 137.974 9.4562L138.018 9.43433C132.649 12.5312 131.446 22.1812 134.218 34.2906C122.33 37.9625 114.599 43.8312 114.599 50.0156C114.599 56.2249 122.371 62.1093 134.293 65.7531C131.543 77.9093 132.771 87.575 138.152 90.6687C139.333 91.3468 140.752 91.7437 142.261 91.7437C142.33 91.7437 142.399 91.7437 142.464 91.7406H142.455C150.086 90.5812 156.693 86.8718 161.518 81.5218L161.543 81.4937C166.402 86.8406 173.008 90.5218 180.452 91.6375L180.627 91.6593C180.674 91.6593 180.733 91.6593 180.789 91.6593C182.314 91.6593 183.749 91.2593 184.989 90.5624L184.946 90.5843C190.311 87.4906 191.518 77.8406 188.746 65.7281C200.589 62.0875 208.321 56.2062 208.321 50.0125C208.321 43.8031 200.549 37.9187 188.627 34.2656C191.377 22.1218 190.149 12.4468 184.768 9.34995C183.574 8.66558 182.143 8.26245 180.618 8.26245C180.577 8.26245 180.536 8.26245 180.496 8.26245H180.502L180.508 8.2687ZM170.168 50.0156C170.168 54.8374 166.258 58.7468 161.436 58.7468C156.614 58.7468 152.705 54.8374 152.705 50.0156C152.705 45.1937 156.614 41.2843 161.436 41.2843C163.849 41.2843 166.03 42.2625 167.611 43.8406C169.193 45.4218 170.168 47.6031 170.168 50.0156Z" fill="white"/>
<g clip-path="url(#clip3_2_21)">
<path d="M278.459 16.6666C271.619 16.6666 265.738 18.5127 261.123 22.4691C256.54 26.397 253.542 32.1152 251.879 39.2425C251.516 40.798 252.308 42.3923 253.766 43.0436C255.225 43.6948 256.94 43.22 257.856 41.9114C259.967 38.896 262.074 37.084 264.099 36.1542C266.061 35.2536 268.175 35.0712 270.596 35.7198C273.04 36.3743 274.931 38.2912 277.901 41.521L277.997 41.6254C280.236 44.0603 282.966 47.0306 286.701 49.3352C290.577 51.7265 295.4 53.3332 301.792 53.3332C308.631 53.3332 314.512 51.4871 319.128 47.5308C323.71 43.6028 326.708 37.8846 328.371 30.7574C328.734 29.2019 327.943 27.6076 326.484 26.9563C325.026 26.305 323.31 26.7798 322.394 28.0884C320.283 31.1039 318.176 32.9158 316.151 33.8457C314.189 34.7462 312.075 34.9287 309.654 34.2801C307.211 33.6256 305.319 31.7086 302.349 28.4788L302.253 28.3744C300.015 25.9395 297.284 22.9692 293.549 20.6647C289.673 18.2734 284.85 16.6666 278.459 16.6666Z" fill="white"/>
<path d="M255.125 46.6666C248.285 46.6666 242.405 48.5127 237.789 52.4691C233.207 56.397 230.209 62.1152 228.546 69.2427C228.183 70.798 228.974 72.392 230.433 73.0434C231.891 73.6947 233.607 73.22 234.523 71.9114C236.633 68.896 238.741 67.084 240.766 66.1542C242.727 65.2536 244.841 65.0712 247.263 65.7198C249.706 66.3743 251.598 68.2914 254.568 71.5214L254.664 71.6254C256.902 74.06 259.633 77.0307 263.368 79.3354C267.244 81.7267 272.067 83.3334 278.459 83.3334C285.298 83.3334 291.179 81.4874 295.795 77.5307C300.377 73.6027 303.375 67.8847 305.038 60.7574C305.401 59.2018 304.609 57.6076 303.151 56.9562C301.693 56.305 299.977 56.7798 299.061 58.0884C296.95 61.1039 294.843 62.9158 292.818 63.8456C290.856 64.7462 288.742 64.9287 286.321 64.2801C283.877 63.6256 281.986 61.7086 279.016 58.4788L278.92 58.3744C276.682 55.9395 273.951 52.9692 270.216 50.6646C266.34 48.2734 261.517 46.6666 255.125 46.6666Z" fill="white"/>
</g>
<path fill-rule="evenodd" clip-rule="evenodd" d="M623.77 2.08337C617.312 2.08337 612.091 4.25217 608.471 7.85525C604.89 11.4197 603.125 16.152 603.125 20.8334C603.125 25.5148 604.89 30.247 608.471 33.8115C608.719 34.0577 608.974 34.2977 609.236 34.5317C609.583 34.8389 609.943 35.1339 610.316 35.4167C609.983 35.669 609.66 35.9315 609.347 36.204C609.046 36.4685 608.754 36.7412 608.471 37.0219C604.89 40.5864 603.125 45.3188 603.125 50C603.125 54.6813 604.89 59.4138 608.471 62.978C609.012 63.5171 609.589 64.0217 610.2 64.4938C607.719 66.4692 605.772 69.045 604.552 71.9909C603.133 75.4171 602.762 79.1871 603.485 82.8246C604.209 86.4625 605.994 89.8029 608.616 92.4254C611.239 95.0479 614.58 96.8321 618.217 97.5567C621.854 98.2809 625.624 97.9084 629.05 96.4884C632.476 95.0704 635.404 92.6675 637.465 89.5834C639.525 86.5013 640.625 82.8754 640.625 79.1667V65.5925C643.604 67.5863 647.187 68.75 651.041 68.75C661.397 68.75 669.791 60.3559 669.791 50C669.791 44.0592 667.029 38.7635 662.717 35.3272C663.328 34.8552 663.904 34.3506 664.445 33.8115C668.026 30.247 669.791 25.5148 669.791 20.8334C669.791 16.152 668.026 11.4197 664.445 7.85525C660.826 4.25217 655.604 2.08337 649.146 2.08337H623.77ZM632.291 39.5834H623.77C619.242 39.5834 616.224 41.0604 614.351 42.9259C612.439 44.8305 611.458 47.3896 611.458 50C611.458 52.6105 612.439 55.1696 614.351 57.0742C616.224 58.9396 619.242 60.4167 623.77 60.4167H632.291V39.5834ZM616.123 70.5588C617.825 69.4213 619.827 68.75 621.875 68.75C621.875 68.75 623.465 68.75 623.77 68.75H632.291V79.1667C632.291 81.2134 631.621 83.2154 630.483 84.9184C629.346 86.6213 627.729 87.9475 625.837 88.7309C623.945 89.5163 621.863 89.7196 619.855 89.3209C617.847 88.9221 616.002 87.9354 614.554 86.4867C613.106 85.0404 612.12 83.195 611.721 81.1871C611.321 79.1788 611.526 77.0954 612.31 75.2054C613.093 73.3134 614.42 71.6959 616.123 70.5588ZM640.625 31.25H649.146C653.674 31.25 656.692 29.773 658.565 27.9073C660.477 26.003 661.458 23.4436 661.458 20.8334C661.458 18.2231 660.477 15.6637 658.565 13.7594C656.692 11.8937 653.674 10.4167 649.146 10.4167H640.625V31.25ZM632.291 31.25H623.77C619.242 31.25 616.224 29.773 614.351 27.9073C612.439 26.003 611.458 23.4436 611.458 20.8334C611.458 18.2231 612.439 15.6637 614.351 13.7594C616.224 11.8937 619.242 10.4167 623.77 10.4167H632.291V31.25ZM651.041 60.3538C645.324 60.3538 640.689 55.7171 640.689 50C640.689 44.283 645.324 39.6465 651.041 39.6465C656.759 39.6465 661.394 44.283 661.394 50C661.394 55.7171 656.759 60.3538 651.041 60.3538Z" fill="white"/>
<path fill-rule="evenodd" clip-rule="evenodd" d="M780.634 30H780.598H737.518L738.548 40H779.608C779.007 48.76 777.186 67.3192 776.518 75.7642L753.456 82.2559V82.2754L753.405 82.2998L730.327 74.1797L728.746 55H740.058L740.859 65.3149L753.425 70H753.456L766.002 65.5005L767.292 50H728.241C728.052 47.995 725.625 21.96 725.201 20H781.643C781.327 23.3 781.006 26.69 780.634 30ZM708.458 0L716.649 90.7397L753.405 100L790.257 90.5542L798.458 0H708.458Z" fill="white"/>
<path d="M921.816 0.0979004L913.497 90.1983L877.458 99.9022L841.417 90.1983L833.101 0.0979004H921.816ZM905.054 18.4184H877.425H849.307L850.652 29.2989H877.425H878.929L877.425 29.9249L851.63 40.6682L852.486 51.3036L877.425 51.3844L890.792 51.4268L889.936 65.6077L877.425 69.1301V69.119L877.322 69.1475L865.24 66.0973L864.506 57.2946H864.466H853.259H853.219L854.686 74.2881L877.425 81.0126V81.0004L877.466 81.0126L900.083 74.4106L903.017 40.6682H877.425H877.362L877.425 40.6409L903.955 29.2989L905.054 18.4184Z" fill="white"/>
<g clip-path="url(#clip4_2_21)">
<path d="M1029.96 31.9604L1038.66 23.2678L1039.23 19.6076C1023.39 5.20412 998.214 6.83732 983.935 23.0154C979.969 27.5088 977.026 33.1108 975.457 38.8955L978.57 38.4569L995.955 35.5901L997.297 34.2174C1005.03 25.7244 1018.11 24.5819 1027.03 31.808L1029.96 31.9604Z" fill="#EA4335"/>
<path d="M1051.04 38.6399C1049.04 31.2821 1044.94 24.6677 1039.23 19.6079L1027.03 31.8079C1032.19 36.0173 1035.12 42.3587 1035 49.0099V51.1755C1040.99 51.1755 1045.85 56.0368 1045.85 62.0333C1045.85 68.0302 1040.99 72.7696 1035 72.7696H1013.25L1011.11 75.0876V88.111L1013.25 90.1544H1035C1050.59 90.2759 1063.34 77.852 1063.46 62.2544C1063.53 52.8001 1058.87 43.9368 1051.04 38.6399Z" fill="#4285F4"/>
<path d="M991.533 90.1545H1013.25V72.7694H991.533C989.985 72.769 988.487 72.4365 987.08 71.7936L983.999 72.7389L975.245 81.4315L974.483 84.3901C979.392 88.0967 985.381 90.1811 991.533 90.1545Z" fill="#34A853"/>
<path d="M991.532 33.7599C975.934 33.8529 963.366 46.5732 963.459 62.1709C963.511 70.881 967.579 79.0803 974.483 84.39L987.08 71.7935C981.615 69.3244 979.186 62.8928 981.655 57.4279C984.124 51.9631 990.556 49.5346 996.02 52.0033C998.429 53.0912 1000.36 55.0201 1001.44 57.4279L1014.04 44.8314C1008.68 37.8248 1000.35 33.7283 991.532 33.7599Z" fill="#FBBC05"/>
</g>
<defs>
<clipPath id="clip0_2_21">
<rect width="100" height="100" fill="white" transform="translate(0.45813)"/>
</clipPath>
<clipPath id="clip1_2_21">
<rect width="100" height="100" fill="white" transform="translate(353.458)"/>
</clipPath>
<clipPath id="clip2_2_21">
<rect width="100" height="100" fill="white" transform="translate(469.458)"/>
</clipPath>
<clipPath id="clip3_2_21">
<rect width="100" height="100" fill="white" transform="translate(228.458)"/>
</clipPath>
<clipPath id="clip4_2_21">
<rect width="100" height="100" fill="white" transform="translate(963.458)"/>
</clipPath>
</defs>
</svg>
