<svg width="563" height="100" viewBox="0 0 563 100" fill="none" xmlns="http://www.w3.org/2000/svg">
<path fill-rule="evenodd" clip-rule="evenodd" d="M56.4077 11.3C95.9677 37.2055 83.174 65.7702 83.174 65.7702C83.174 65.7702 94.4242 78.0025 89.8747 88.7001C89.8747 88.7001 85.2351 81.2087 77.4545 81.2087C69.9529 81.2087 65.5474 88.7001 50.4542 88.7001C16.8478 88.7001 0.95813 61.6634 0.95813 61.6634C31.2345 80.8445 51.9077 67.261 51.9077 67.261C38.268 59.6353 9.25167 23.167 9.25167 23.167C34.5195 43.8819 45.4412 49.345 45.4412 49.345C38.9251 44.1544 20.6413 18.7915 20.6413 18.7915C35.2665 33.0549 64.3279 52.9542 64.3279 52.9542C72.581 30.9309 56.4077 11.3 56.4077 11.3Z" fill="white"/>
<path d="M153.686 69.4093C155.405 69.4875 157.161 69.5437 158.939 69.5437C160.736 69.5437 162.511 69.5062 164.252 69.4093C162.511 71.6593 160.793 73.6499 158.974 75.5468L158.999 75.5218C157.189 73.6468 155.452 71.6531 153.814 69.5781L153.686 69.4093ZM135.88 66.9093C139.264 67.7687 143.393 68.4999 147.605 68.9499L148.014 68.9843C150.593 72.5249 153.199 75.6406 155.996 78.5718L155.961 78.5343C151.864 83.1062 146.336 86.3187 140.083 87.4718L139.911 87.4968C139.899 87.4968 139.886 87.4968 139.874 87.4968C139.099 87.4968 138.368 87.3062 137.727 86.9687L137.752 86.9812C135.152 85.4968 134.024 79.8187 134.902 72.5218C135.111 70.7249 135.455 68.8343 135.877 66.9062L135.88 66.9093ZM182.077 66.8687C182.446 68.35 182.793 70.2374 183.039 72.1562L183.068 72.425C183.964 79.7187 182.858 85.3906 180.28 86.9062C179.705 87.225 179.018 87.4124 178.286 87.4124C178.214 87.4124 178.143 87.4093 178.071 87.4062H178.08C171.664 86.2343 166.139 83.0437 162.052 78.5281L162.03 78.5031C164.777 75.6187 167.364 72.5093 169.736 69.2375L169.918 68.975C174.53 68.4937 178.664 67.7499 182.693 66.7343L182.077 66.8656V66.8687ZM139.533 55.2062C140.314 56.7375 141.133 58.2625 142.033 59.7937C142.931 61.3166 143.849 62.8041 144.786 64.2562C142.074 63.8593 139.455 63.3593 136.952 62.75C137.655 60.2906 138.536 57.7437 139.53 55.2L139.533 55.2062ZM178.371 55.1281C179.405 57.6937 180.283 60.2531 181.011 62.7343C178.511 63.3468 175.871 63.8656 173.139 64.2562C174.077 62.7906 175.014 61.2812 175.893 59.7343C176.771 58.2125 177.593 56.6562 178.377 55.125L178.371 55.1281ZM132.768 38.4125C134.13 43.0312 135.593 46.8937 137.296 50.6187L137.061 50.05C135.605 53.1906 134.164 57.0312 132.983 60.9843L132.821 61.625C130.614 60.9468 128.839 60.2812 127.111 59.5343L127.471 59.6718C120.708 56.7937 116.333 53.0093 116.333 50.0093C116.333 47.0093 120.708 43.2062 127.471 40.3406C129.111 39.6375 130.911 39.0031 132.768 38.4125ZM185.077 38.3968C186.968 38.9812 188.764 39.6343 190.446 40.3406C197.208 43.2312 201.583 47.0093 201.583 50.0093C201.564 53.0093 197.189 56.8031 190.427 59.6749C188.786 60.3781 186.989 61.0093 185.136 61.6C183.761 56.9656 182.299 53.1062 180.602 49.375L180.839 49.9625C182.289 46.825 183.733 42.9843 184.911 39.0312L185.077 38.3875V38.3968ZM173.114 35.7625C175.83 36.1656 178.446 36.6593 180.949 37.275C180.246 39.7437 179.368 42.2812 178.371 44.825C177.589 43.3031 176.771 41.7687 175.871 40.2406C174.993 38.7093 174.055 37.2187 173.118 35.7656L173.114 35.7625ZM144.764 35.7625C143.827 37.2343 142.889 38.7406 142.014 40.2937C141.136 41.8156 140.314 43.3468 139.533 44.8781C138.499 42.3156 137.621 39.7625 136.893 37.275C139.393 36.6906 142.027 36.1687 144.761 35.7687L144.764 35.7625ZM158.958 34.7687C161.849 34.7687 164.727 34.9 167.558 35.1312C169.144 37.4041 170.683 39.825 172.177 42.3937C173.629 44.8937 174.954 47.427 176.152 49.9937C174.949 52.5531 173.63 55.1093 172.196 57.6093C170.711 60.1875 169.177 62.6406 167.586 64.9124C164.743 65.1593 161.861 65.2937 158.955 65.2937C156.064 65.2937 153.186 65.1562 150.355 64.9312C148.771 62.6593 147.224 60.2281 145.736 57.6687C144.284 55.1687 142.959 52.6354 141.761 50.0687C142.946 47.5031 144.283 44.9406 145.718 42.4375C147.202 39.8593 148.736 37.4156 150.327 35.1437C153.171 34.8937 156.052 34.7624 158.958 34.7624V34.7687ZM158.899 24.5156C160.711 26.3906 162.449 28.3812 164.083 30.4562L164.208 30.6218C162.489 30.5437 160.733 30.4906 158.955 30.4906C157.158 30.4906 155.383 30.5281 153.643 30.6218C155.38 28.3718 157.099 26.3812 158.921 24.4843L158.896 24.5093L158.899 24.5156ZM139.833 12.6031C146.249 13.7781 151.771 16.9687 155.861 21.4812L155.883 21.5062C153.136 24.3937 150.549 27.5031 148.177 30.7812L147.996 31.0437C143.386 31.5218 139.252 32.2593 135.227 33.275L135.839 33.1437C135.402 31.2312 135.077 29.3781 134.849 27.6C133.952 20.3062 135.058 14.6343 137.636 13.125C138.28 12.8218 139.033 12.6343 139.827 12.6093H139.836L139.833 12.6031ZM177.989 12.525V12.55C178.03 12.55 178.077 12.5468 178.127 12.5468C178.874 12.5468 179.577 12.7312 180.196 13.0562L180.171 13.0437C182.771 14.5343 183.899 20.2093 183.021 27.5093C182.811 29.3062 182.468 31.2 182.046 33.1312C178.655 32.2625 174.527 31.5281 170.314 31.0812L169.914 31.0468C167.333 27.5031 164.727 24.3875 161.93 21.4531L161.968 21.4906C166.064 16.9281 171.583 13.7156 177.824 12.5562L177.999 12.5281L177.989 12.525ZM178.008 8.2687C170.377 9.42808 163.771 13.1343 158.946 18.4812L158.921 18.5093C154.061 13.1656 147.455 9.48433 140.011 8.3687L139.836 8.34683C139.796 8.34683 139.746 8.34683 139.696 8.34683C138.161 8.34683 136.721 8.74995 135.474 9.4562L135.518 9.43433C130.149 12.5312 128.946 22.1812 131.718 34.2906C119.83 37.9625 112.099 43.8312 112.099 50.0156C112.099 56.2249 119.871 62.1093 131.793 65.7531C129.043 77.9093 130.271 87.575 135.652 90.6687C136.833 91.3468 138.252 91.7437 139.761 91.7437C139.83 91.7437 139.899 91.7437 139.964 91.7406H139.955C147.586 90.5812 154.193 86.8718 159.018 81.5218L159.043 81.4937C163.902 86.8406 170.508 90.5218 177.952 91.6375L178.127 91.6593C178.174 91.6593 178.233 91.6593 178.289 91.6593C179.814 91.6593 181.249 91.2593 182.489 90.5624L182.446 90.5843C187.811 87.4906 189.018 77.8406 186.246 65.7281C198.089 62.0875 205.821 56.2062 205.821 50.0125C205.821 43.8031 198.049 37.9187 186.127 34.2656C188.877 22.1218 187.649 12.4468 182.268 9.34995C181.074 8.66558 179.643 8.26245 178.118 8.26245C178.077 8.26245 178.036 8.26245 177.996 8.26245H178.002L178.008 8.2687ZM167.668 50.0156C167.668 54.8374 163.758 58.7468 158.936 58.7468C154.114 58.7468 150.205 54.8374 150.205 50.0156C150.205 45.1937 154.114 41.2843 158.936 41.2843C161.349 41.2843 163.53 42.2625 165.111 43.8406C166.693 45.4218 167.668 47.6031 167.668 50.0156Z" fill="white"/>
<g clip-path="url(#clip0_2_49)">
<path d="M226.958 50V100H326.958V0H226.958V50ZM307.539 46.0125C310.08 46.6469 312.014 47.7875 313.805 49.625C314.718 50.6 316.083 52.3906 316.199 52.8312C316.23 52.9625 311.886 55.875 309.249 57.5031C309.152 57.5687 308.761 57.1625 308.336 56.525C307.052 54.6531 305.699 53.8406 303.633 53.6937C300.605 53.4969 298.652 55.0781 298.668 57.7313C298.652 58.3813 298.799 59.0344 299.089 59.6031C299.758 60.9875 301.011 61.8156 304.883 63.4938C312.046 66.5688 315.105 68.6031 317.008 71.4844C319.139 74.7063 319.611 79.85 318.18 83.6906C316.586 87.8406 312.646 90.6719 307.111 91.6C305.402 91.9094 301.333 91.8594 299.493 91.5187C295.474 90.8031 291.664 88.8156 289.321 86.2125C288.393 85.2031 286.602 82.55 286.718 82.3719C286.768 82.3062 287.174 82.0469 287.63 81.7844C288.086 81.5219 289.761 80.5469 291.343 79.6344L294.224 77.9594L294.827 78.8531C295.674 80.1375 297.511 81.8969 298.621 82.4812C301.811 84.175 306.189 83.9313 308.355 81.9938C309.233 81.2625 309.724 80.1375 309.658 79C309.658 77.8438 309.511 77.325 308.908 76.4594C308.127 75.3531 306.549 74.4094 302.039 72.4563C296.88 70.225 294.649 68.8594 292.633 66.6625C291.364 65.2125 290.421 63.5062 289.883 61.6656C289.508 60.25 289.411 56.7 289.705 55.2844C290.764 50.2875 294.539 46.8219 299.958 45.7969C301.718 45.4562 305.818 45.5844 307.543 46.0094L307.539 46.0125ZM284.071 50.1969L284.102 54.2813H271.08V91.2781H261.868V54.2813H248.864V50.2781C248.864 48.0469 248.914 46.1937 248.977 46.1437C249.027 46.0781 256.936 46.0469 266.539 46.0625L284.021 46.1125L284.071 50.1969Z" fill="white"/>
</g>
<g clip-path="url(#clip1_2_49)">
<path fill-rule="evenodd" clip-rule="evenodd" d="M421.598 92.1606C412.873 92.1606 407.233 88.001 404.483 82.561L412.133 78.1299C414.148 81.4199 416.763 83.8354 421.398 83.8354C425.288 83.8354 427.773 81.8891 427.773 79.2041C427.773 75.1641 422.383 73.5856 418.578 71.9556C411.798 69.0706 407.298 65.4455 407.298 57.7905C407.298 50.7455 412.668 45.376 421.063 45.376C427.033 45.376 431.333 47.4556 434.418 52.8906L427.103 57.5903C425.493 54.7053 423.748 53.5645 421.063 53.5645C418.308 53.5645 416.563 55.3103 416.563 57.5903C416.563 60.4103 418.308 61.5509 422.338 63.2959C430.783 66.9159 437.173 69.7598 437.173 79.0698C437.173 87.5298 430.528 92.1606 421.598 92.1606ZM399.958 77.9956C399.958 87.7306 393.963 92.876 385.638 92.876C378.118 92.876 373.613 90 371.398 85H371.323H371.288H371.268L378.913 79.6558C380.388 82.2708 381.718 84.126 384.938 84.126C388.028 84.126 389.958 82.5612 389.958 77.8662V45H399.958V77.9956ZM344.958 100H444.958V0H344.958V100Z" fill="white"/>
</g>
<path fill-rule="evenodd" clip-rule="evenodd" d="M500.27 2.08325C493.812 2.08325 488.591 4.25204 484.971 7.85513C481.39 11.4196 479.625 16.1518 479.625 20.8332C479.625 25.5147 481.39 30.2469 484.971 33.8114C485.219 34.0575 485.474 34.2976 485.736 34.5316C486.083 34.8388 486.443 35.1338 486.815 35.4166C486.483 35.6689 486.16 35.9313 485.847 36.2039C485.546 36.4684 485.253 36.741 484.971 37.0218C481.39 40.5862 479.625 45.3187 479.625 49.9999C479.625 54.6812 481.39 59.4137 484.971 62.9778C485.512 63.517 486.089 64.0216 486.7 64.4937C484.219 66.4691 482.272 69.0449 481.052 71.9907C479.633 75.417 479.262 79.187 479.985 82.8245C480.709 86.4624 482.494 89.8028 485.116 92.4253C487.739 95.0478 491.08 96.832 494.717 97.5566C498.354 98.2807 502.124 97.9082 505.55 96.4882C508.976 95.0703 511.904 92.6674 513.965 89.5832C516.025 86.5012 517.125 82.8753 517.125 79.1666V65.5924C520.104 67.5862 523.687 68.7499 527.541 68.7499C537.897 68.7499 546.291 60.3557 546.291 49.9999C546.291 44.0591 543.529 38.7633 539.217 35.3271C539.828 34.855 540.404 34.3505 540.945 33.8114C544.526 30.2469 546.291 25.5147 546.291 20.8332C546.291 16.1518 544.526 11.4196 540.945 7.85513C537.326 4.25204 532.104 2.08325 525.646 2.08325H500.27ZM508.791 39.5832H500.27C495.742 39.5832 492.724 41.0603 490.851 42.9257C488.939 44.8303 487.958 47.3895 487.958 49.9999C487.958 52.6103 488.939 55.1695 490.851 57.0741C492.724 58.9395 495.742 60.4166 500.27 60.4166H508.791V39.5832ZM492.623 70.5587C494.325 69.4212 496.327 68.7499 498.375 68.7499C498.375 68.7499 499.965 68.7499 500.27 68.7499H508.791V79.1666C508.791 81.2132 508.121 83.2153 506.983 84.9182C505.846 86.6212 504.229 87.9474 502.337 88.7307C500.445 89.5162 498.363 89.7195 496.355 89.3207C494.347 88.922 492.502 87.9353 491.054 86.4866C489.606 85.0403 488.62 83.1949 488.221 81.187C487.821 79.1787 488.026 77.0953 488.81 75.2053C489.593 73.3132 490.92 71.6957 492.623 70.5587ZM517.125 31.2499H525.646C530.174 31.2499 533.192 29.7729 535.065 27.9072C536.977 26.0029 537.958 23.4435 537.958 20.8332C537.958 18.223 536.977 15.6636 535.065 13.7593C533.192 11.8936 530.174 10.4166 525.646 10.4166H517.125V31.2499ZM508.791 31.2499H500.27C495.742 31.2499 492.724 29.7729 490.851 27.9072C488.939 26.0029 487.958 23.4435 487.958 20.8332C487.958 18.223 488.939 15.6636 490.851 13.7593C492.724 11.8936 495.742 10.4166 500.27 10.4166H508.791V31.2499ZM527.541 60.3537C521.824 60.3537 517.189 55.717 517.189 49.9999C517.189 44.2828 521.824 39.6463 527.541 39.6463C533.259 39.6463 537.894 44.2828 537.894 49.9999C537.894 55.717 533.259 60.3537 527.541 60.3537Z" fill="white"/>
<defs>
<clipPath id="clip0_2_49">
<rect width="100" height="100" fill="white" transform="translate(226.958)"/>
</clipPath>
<clipPath id="clip1_2_49">
<rect width="100" height="100" fill="white" transform="translate(344.958)"/>
</clipPath>
</defs>
</svg>
