<svg width="91" height="91" viewBox="0 0 91 91" fill="none" xmlns="http://www.w3.org/2000/svg">
<path d="M73.9144 70.7292L58.7775 45.2479L73.9144 19.7554L81.2212 45.2423L73.9115 70.7235L73.9144 70.7292ZM40.1812 68.2823L21.1462 49.3907H51.4059L66.5372 74.8748L40.1784 68.2879L40.1812 68.2823ZM40.1812 22.2079L66.5372 15.621L51.4087 41.1051H21.1434L40.1812 22.2079ZM88.1344 36.5742L78.9037 3.06885L44.4478 12.0492L39.3515 20.8017L29.0015 20.7257L3.78467 45.2479L29.0044 69.7729L39.3487 69.6913L44.459 78.4438L78.9009 87.4213L88.1344 53.9301L82.8919 45.2479L88.1344 36.5742Z" fill="white"/>
</svg>
